<?xml version="1.0" standalone="no"?>
<!DOCTYPE svg PUBLIC "-//W3C//DTD SVG 20010904//EN"
 "http://www.w3.org/TR/2001/REC-SVG-20010904/DTD/svg10.dtd">
<svg version="1.0" xmlns="http://www.w3.org/2000/svg"
 width="258.000000pt" height="258.000000pt" viewBox="0 0 258.000000 258.000000"
 preserveAspectRatio="xMidYMid meet">
<metadata>
Created by potrace 1.14, written by Peter Selinger 2001-2017
</metadata>
<g transform="translate(0.000000,258.000000) scale(0.100000,-0.100000)"
fill="#000000" stroke="none">
<path d="M1340 1845 c-7 -9 -14 -26 -15 -39 -2 -13 -10 -39 -18 -57 -24 -54
-29 -76 -28 -143 0 -39 8 -85 21 -117 11 -30 20 -54 20 -55 0 0 -11 -14 -25
-30 -27 -30 -56 -110 -48 -131 3 -8 29 -11 79 -10 74 2 74 2 92 36 33 66 110
63 139 -6 10 -24 20 -33 37 -33 14 0 26 6 29 13 7 19 -19 93 -43 124 -28 36
-88 73 -119 73 -23 0 -24 2 -19 63 6 72 28 122 57 130 11 3 23 17 27 33 6 22
2 31 -16 46 -33 27 -63 5 -72 -53 -3 -24 -11 -57 -17 -73 -6 -16 -12 -55 -12
-86 -1 -53 -3 -59 -26 -64 -33 -9 -40 -2 -58 56 -19 65 -19 111 1 177 11 40
21 54 42 62 45 17 57 60 25 85 -24 18 -38 17 -53 -1z"/>
<path d="M240 1143 c-13 -32 -31 -76 -40 -98 -53 -124 -68 -165 -62 -169 14
-8 29 8 46 47 l15 38 82 -3 c82 -3 82 -3 92 -33 13 -40 26 -55 42 -49 15 6 13
11 -62 184 -11 25 -28 66 -38 93 -24 65 -45 62 -75 -10z m74 -72 c14 -36 26
-67 26 -70 0 -4 -27 -6 -60 -6 -48 0 -60 3 -60 15 0 9 4 20 9 26 4 5 16 33 27
62 10 28 21 49 25 45 4 -5 19 -37 33 -72z"/>
<path d="M489 1188 c-1 -7 -2 -78 -2 -156 -2 -127 0 -145 15 -153 16 -9 18 1
20 122 l3 131 94 -131 c52 -73 99 -130 105 -128 7 2 11 57 11 162 0 140 -2
158 -17 161 -15 2 -16 -11 -15 -122 1 -68 0 -124 -3 -124 -3 0 -45 57 -94 125
-81 114 -114 146 -117 113z"/>
<path d="M800 1180 c0 -12 7 -17 23 -16 12 1 33 -1 47 -4 l25 -6 0 -137 c0
-75 3 -137 8 -137 4 0 12 0 17 0 6 0 10 53 10 139 l0 140 47 3 c34 2 49 8 51
19 2 13 -14 15 -113 16 -102 0 -115 -2 -115 -17z"/>
<path d="M1087 1193 c-6 -10 -6 -294 0 -310 3 -6 17 -11 31 -10 27 2 27 3 32
97 l5 95 28 -47 c46 -76 50 -77 89 -11 l33 58 5 -95 5 -95 33 -3 32 -3 0 166
0 166 -37 -3 c-33 -3 -40 -9 -70 -60 -19 -32 -37 -58 -42 -58 -4 0 -18 19 -31
43 -12 23 -30 50 -38 60 -15 17 -67 24 -75 10z"/>
<path d="M1450 1034 l0 -165 33 3 32 3 3 163 2 162 -35 0 -35 0 0 -166z"/>
<path d="M1588 1083 c-2 -65 -2 -139 0 -165 3 -45 4 -46 35 -44 l32 3 1 84 c1
46 2 88 3 93 0 4 31 -34 69 -85 54 -76 73 -94 95 -96 30 -2 28 -10 28 132 0
209 2 195 -30 195 -35 0 -37 -6 -36 -102 1 -43 -1 -78 -4 -78 -4 0 -33 40 -66
88 -52 75 -65 87 -92 90 l-32 3 -3 -118z"/>
<path d="M1920 1170 c-1 -16 -1 -66 -1 -110 0 -44 0 -104 1 -133 l0 -53 113 0
c110 1 112 1 115 25 5 35 -6 40 -86 42 l-73 2 3 31 3 31 67 -1 c70 -1 79 6 70
49 -3 14 -15 17 -73 17 l-69 0 0 30 0 30 80 0 80 0 0 35 0 35 -115 0 -115 0 0
-30z"/>
<path d="M2204 1187 c-2 -7 -3 -80 -2 -162 l3 -150 30 0 c29 0 30 2 35 50 7
68 29 70 71 8 18 -26 34 -50 36 -52 8 -10 73 -7 73 3 0 6 -11 28 -25 48 -28
42 -32 66 -11 74 29 11 42 79 26 128 -15 46 -56 64 -153 65 -56 1 -79 -2 -83
-12z m166 -77 c11 -20 5 -59 -8 -61 -4 0 -26 -2 -49 -5 l-43 -5 0 46 0 45 45
0 c34 0 47 -5 55 -20z"/>
</g>
</svg>
